<svg width="30" height="30" xmlns="http://www.w3.org/2000/svg" xmlns:xlink="http://www.w3.org/1999/xlink" xml:space="preserve" overflow="hidden"><g><path d="M14.9688 25.3125C10.125 25.3125 6.21875 21.4062 6.21875 16.5625 6.21875 11.7188 10.125 7.8125 14.9688 7.8125 19.8125 7.8125 23.7188 11.7188 23.7188 16.5625L23.7188 16.5625C23.75 21.4062 19.8438 25.3125 14.9688 25.3125ZM22.375 8.9375 23.3125 8C23.6562 7.625 23.6562 7.03125 23.2812 6.6875 22.9062 6.34375 22.3438 6.3125 21.9688 6.65625L20.9062 7.75C19.4062 6.75 17.6875 6.125 15.9062 6L15.9062 4.6875 18.7188 4.6875 18.7188 2.8125 11.2188 2.8125 11.2188 4.6875 14.0312 4.6875 14.0312 5.96875C8.15625 6.46875 3.84375 11.6562 4.34375 17.5 4.84375 23.3438 10.0312 27.6875 15.875 27.1875 21.7188 26.6875 26.0625 21.5 25.5625 15.6562 25.375 13.0938 24.2188 10.7188 22.375 8.9375Z" stroke="#000000" stroke-width="0.333334" fill="none"/><path d="M15.5938 16.5625 15.5938 9.09375C15.375 9.0625 15.1875 9.0625 14.9688 9.0625 14.75 9.0625 14.5625 9.0625 14.3438 9.09375L14.3438 16.5625 15.5938 16.5625Z" stroke="#000000" stroke-width="0.333334" fill="none"/></g></svg>